# xmcd CD database file
#
# Track frame offsets:
#	150
#	12017
#	23980
#	34382
#	44055
#	56046
#	68319
#	82120
#	93351
#	104529
#	116682
#	128469
#
# Disc length: 1877 seconds
#
# Revision: 0
# Processed by: cddbd v1.5.2PL0 Copyright (c) Steve Scherf et al.
# Submitted via: ACXtractor (MTCDDB.DLL V2003.07.15)
#
DISCID=9b07530c
DTITLE=The Country Drifters - Country - The West Coast Way
DYEAR=1982
DGENRE=Country
TTITLE0=A whole lot of something
TTITLE1=Double life
TTITLE2=One more memory
TTITLE3=A girl like you
TTITLE4=Cinderella
TTITLE5=You're stronger than me
TTITLE6=Talk back trembling lips
TTITLE7=Playboy
TTITLE8=High as the mountains
TTITLE9=Under your spell again
TTITLE10=Storm of love
TTITLE11=Another bridge to burn
EXTD=ID3G:   2 YEAR: 1982
EXTT0=
EXTT1=
EXTT2=
EXTT3=
EXTT4=
EXTT5=
EXTT6=
EXTT7=
EXTT8=
EXTT9=
EXTT10=
EXTT11=
PLAYORDER=
